<?xml version="1.0" encoding="utf-8" ?>
<svg baseProfile="full" height="1024px" version="1.1" width="1024px" xmlns="http://www.w3.org/2000/svg" xmlns:ev="http://www.w3.org/2001/xml-events" xmlns:xlink="http://www.w3.org/1999/xlink"><defs /><polygon fill="black" points="726,623 727,623" /><polygon fill="black" points="560,623 561,623" /><polygon fill="black" points="464,623 471,623" /><polygon fill="black" points="440,623 442,623" /><polygon fill="black" points="400,623 407,623" /><polygon fill="black" points="432,619 432,621 433,620" /><polygon fill="black" points="560,618 561,618" /><polygon fill="black" points="445,618 446,619 447,619 447,618" /><polygon fill="black" points="654,616 654,617 655,618 655,619 655,616" /><polygon fill="black" points="794,615 796,615" /><polygon fill="black" points="790,615 791,615" /><polygon fill="black" points="771,615 774,615" /><polygon fill="black" points="768,615 769,615" /><polygon fill="black" points="677,615 678,615" /><polygon fill="black" points="673,615 675,615" /><polygon fill="black" points="579,615 580,615" /><polygon fill="black" points="560,615" /><polygon fill="black" points="557,615" /><polygon fill="black" points="538,615" /><polygon fill="black" points="536,615" /><polygon fill="black" points="491,615" /><polygon fill="black" points="389,615 390,615" /><polygon fill="black" points="337,615" /><polygon fill="black" points="256,615" /><polygon fill="black" points="172,615 175,615" /><polygon fill="black" points="830,614 831,615 831,614" /><polygon fill="black" points="816,614 816,615" /><polygon fill="black" points="663,614" /><polygon fill="black" points="514,614 514,615" /><polygon fill="black" points="441,614 441,615 442,614 443,614 444,615 445,615 444,614" /><polygon fill="black" points="394,614 397,614" /><polygon fill="black" points="258,614 261,614" /><polygon fill="black" points="384,613 384,614 385,615 386,615 385,615 384,614" /><polygon fill="black" points="340,613 341,613 342,614 342,615 343,615 342,614 342,613" /><polygon fill="black" points="272,613 272,614 273,615 274,615 273,614 274,613" /><polygon fill="black" points="240,613 247,613" /><polygon fill="black" points="184,613 191,613" /><polygon fill="black" points="168,613 175,613" /><polygon fill="black" points="160,613 160,614 163,614 162,613" /><polygon fill="black" points="680,612 680,613 681,613" /><polygon fill="black" points="752,611 751,612 750,612 752,614 752,615 752,614 751,613 751,612 752,611 753,612 753,611" /><polygon fill="black" points="262,609 261,610 261,611 262,611" /><polygon fill="black" points="756,608 755,609 755,610 756,610" /><polygon fill="black" points="753,608" /><polygon fill="black" points="680,608 679,609 679,610 679,609" /><polygon fill="black" points="415,608 415,615" /><polygon fill="black" points="870,607 871,607" /><polygon fill="black" points="630,603 631,604 631,603" /><polygon fill="black" points="648,601 648,602 649,601 650,601" /><polygon fill="black" points="871,600 871,601 870,602 871,602" /><polygon fill="black" points="629,600 629,601 630,601 630,600" /><polygon fill="black" points="447,600 447,601" /><polygon fill="black" points="420,599 422,599" /><polygon fill="black" points="406,599" /><polygon fill="black" points="871,596 871,598" /><polygon fill="black" points="263,596 263,599" /><polygon fill="black" points="867,595 867,597 868,598 868,599 869,599 868,598 868,595" /><polygon fill="black" points="448,594 448,597" /><polygon fill="black" points="384,593 384,596 385,596 385,593" /><polygon fill="black" points="443,592" /><polygon fill="black" points="219,592 222,592" /><polygon fill="black" points="263,591" /><polygon fill="black" points="871,585" /><polygon fill="black" points="240,584 240,585" /><polygon fill="black" points="871,576 871,577" /><polygon fill="black" points="394,576 395,577 395,576" /><polygon fill="black" points="513,575" /><polygon fill="black" points="515,572 515,574 516,574 516,573" /><polygon fill="black" points="261,569 261,570" /><polygon fill="black" points="492,568" /><polygon fill="black" points="240,566 240,567" /><polygon fill="black" points="776,565" /><polygon fill="black" points="536,565" /><polygon fill="black" points="496,565 496,566" /><polygon fill="black" points="801,564 800,565 802,565" /><polygon fill="black" points="854,563 854,564 855,564 855,563" /><polygon fill="black" points="805,562 805,563 807,563 807,562" /><polygon fill="black" points="783,561 783,562" /><polygon fill="black" points="543,561 543,562" /><polygon fill="black" points="848,560 849,560" /><polygon fill="black" points="815,560" /><polygon fill="black" points="792,560 799,560" /><polygon fill="black" points="774,560 777,560" /><polygon fill="black" points="751,560" /><polygon fill="black" points="733,560 735,560" /><polygon fill="black" points="600,560 607,560" /><polygon fill="black" points="568,560 569,560" /><polygon fill="black" points="561,560 561,561 562,561 562,560" /><polygon fill="black" points="536,560 537,560" /><polygon fill="black" points="464,560 466,560" /><polygon fill="black" points="240,560 240,561" /><polygon fill="black" points="710,559" /><polygon fill="black" points="496,552" /><polygon fill="black" points="677,549 678,550 678,549" /><polygon fill="black" points="496,548 496,549 497,549 497,548" /><polygon fill="black" points="648,547 648,548 649,548" /><polygon fill="black" points="704,546 711,546" /><polygon fill="black" points="674,545 675,546 676,546 677,545" /><polygon fill="black" points="710,544 711,544" /><polygon fill="black" points="687,544 686,545 683,545 681,547 681,548 684,545 687,545 688,544 704,544" /><polygon fill="black" points="679,544 679,545 680,544" /><polygon fill="black" points="672,544 672,545 671,546 656,546 655,545 648,545 655,545 656,546 671,546 672,547 672,548 671,549 670,549 669,548 668,549 666,549 665,548 664,549 663,548 652,548 650,550 649,550 648,551 648,552 649,553 648,554 648,555 649,556 648,557 649,558 649,559 650,558 651,558 652,559 654,559 655,558 656,559 656,600 652,604 650,604 653,604 653,603 654,602 655,602 656,603 656,605 655,606 653,606 650,609 649,609 648,608 649,607 648,608 649,609 648,610 650,610 651,611 650,612 648,612 648,615 648,613 649,612 651,612 652,613 652,614 651,615 652,615 654,613 655,613 656,614 659,614 656,614 655,613 656,612 666,612 667,613 666,614 666,615 668,615 668,613 669,612 670,612 671,613 674,613 675,612 676,612 675,612 674,613 672,613 671,612 672,611 673,611 674,610 675,610 676,609 677,609 677,608 676,608 675,609 674,609 673,608 672,608 671,607 671,596 671,599 670,600 669,599 669,591 668,590 668,589 666,587 666,586 668,584 669,585 669,586 669,585 670,584 671,585 671,588 671,584 672,583 687,583 688,584 690,584 692,586 693,585 694,586 694,588 693,589 692,588 690,590 688,590 688,591 689,592 689,599 688,600 688,604 690,606 689,607 688,607 688,608 687,609 686,609 685,610 686,611 688,611 689,612 686,615 685,615 688,615 688,614 690,612 691,613 691,614 690,615 691,615 692,614 693,614 694,615 702,615 694,615 693,614 693,613 691,613 690,612 691,611 694,611 696,613 703,613 704,614 704,615 705,614 706,615 707,614 708,614 709,615 710,615 711,614 710,613 711,612 711,610 710,609 712,607 717,607 718,606 720,608 720,609 721,610 720,611 720,612 721,612 722,611 726,611 727,612 726,613 723,613 722,614 721,614 720,615 724,615 725,614 726,614 727,615 726,614 727,613 730,613 731,614 733,614 734,613 735,613 736,612 737,613 737,614 736,615 737,614 738,615 739,615 738,614 739,613 740,613 741,614 741,615 742,614 743,615 745,615 746,614 748,614 745,614 744,615 743,615 741,613 742,612 744,612 745,611 746,611 745,611 744,610 746,608 747,608 748,607 749,607 750,608 748,610 749,610 750,609 750,608 752,606 753,606 753,605 751,603 753,601 754,601 754,600 755,599 757,599 758,600 756,602 756,603 757,603 757,601 759,599 760,600 761,600 762,601 762,602 761,603 760,603 760,604 759,605 759,606 760,607 758,609 758,611 756,613 755,613 755,614 756,613 758,613 759,614 758,615 757,615 758,615 760,613 765,613 766,614 765,615 762,615 766,615 766,614 767,613 776,613 777,614 777,615 778,615 778,614 776,612 777,611 778,611 780,613 780,614 781,614 782,615 783,614 784,615 783,614 783,613 782,612 783,611 784,611 785,612 785,613 787,615 788,615 787,615 786,614 788,612 789,613 800,613 801,614 800,615 798,615 803,615 804,614 804,613 805,612 806,612 807,613 807,614 806,615 807,615 808,614 809,615 809,614 810,613 811,613 812,614 812,615 813,615 814,614 813,614 811,612 812,611 813,611 814,612 815,611 816,611 817,612 822,612 823,611 827,611 828,612 827,613 824,613 823,614 820,614 823,614 824,615 828,615 824,615 823,614 824,613 828,613 828,610 827,610 825,608 826,607 826,605 825,604 825,598 824,597 824,595 824,597 825,598 825,599 824,600 825,601 825,602 824,603 822,601 822,592 823,591 824,591 825,592 825,593 825,592 823,590 823,588 824,587 824,583 823,584 823,591 822,592 821,591 821,583 822,582 822,581 823,580 824,581 826,581 827,582 827,584 826,585 826,590 827,591 827,594 826,595 827,596 827,599 828,600 828,604 829,604 830,605 830,606 829,607 828,607 828,608 829,608 831,610 831,612 832,611 833,612 833,613 834,612 835,613 835,614 834,615 833,615 834,615 835,614 836,614 837,615 839,615 840,614 842,614 843,615 845,615 846,614 847,614 848,615 849,614 850,614 851,615 850,614 850,613 851,612 852,613 853,613 854,614 855,614 856,615 859,615 860,614 861,614 862,615 863,615 862,614 862,613 863,612 862,612 859,615 856,615 855,614 856,613 858,613 862,609 862,608 863,607 863,603 864,602 865,602 866,601 866,600 865,599 865,598 864,598 863,597 861,597 859,599 858,599 857,598 859,596 858,596 857,595 857,594 858,593 860,593 861,594 861,595 863,595 863,594 862,594 861,593 862,592 863,592 864,591 865,592 867,592 866,592 865,591 866,590 867,590 867,585 868,584 869,585 869,587 870,588 870,591 871,591 870,590 870,588 869,587 869,584 870,583 871,583 870,582 870,579 868,577 868,576 868,577 869,578 869,583 868,584 867,583 867,579 866,578 866,577 865,576 865,578 864,579 863,578 863,574 862,573 863,572 863,571 862,570 863,569 862,568 863,569 862,570 861,570 859,568 858,569 857,568 856,568 855,569 854,568 853,568 852,567 850,567 849,566 848,566 847,565 845,565 843,567 842,567 840,569 839,568 838,569 837,568 836,569 835,568 834,569 833,569 832,568 833,569 832,570 832,571 833,572 832,573 833,574 831,576 829,576 829,577 828,578 827,577 827,576 827,577 828,578 827,579 826,579 825,578 825,576 824,576 822,574 823,573 822,572 822,571 823,570 822,569 822,568 822,569 821,570 820,570 819,569 820,568 819,569 818,568 817,569 816,568 814,568 813,567 811,567 810,566 804,566 804,567 802,569 801,568 800,569 799,568 797,568 796,569 795,568 794,569 793,568 792,569 791,568 790,568 789,567 788,567 787,566 780,566 778,568 777,568 776,569 775,568 774,569 773,568 772,568 771,567 770,567 769,566 768,566 767,567 760,567 759,568 760,569 757,572 756,571 756,568 756,569 755,570 755,571 756,571 757,572 757,573 756,574 755,574 755,575 754,576 751,576 750,575 752,573 753,573 753,571 752,572 751,572 750,571 750,570 752,568 753,568 751,568 750,569 749,568 748,568 748,569 746,571 745,570 745,569 746,568 745,569 744,568 743,568 742,569 740,567 738,567 737,566 736,566 735,567 726,567 724,569 722,569 721,568 718,568 717,569 716,569 715,568 713,568 712,569 713,569 714,568 715,568 716,569 713,572 712,572 712,573 713,574 711,576 711,577 713,579 713,580 712,581 713,582 711,584 711,594 712,595 712,598 713,599 713,600 712,601 711,600 708,600 707,599 707,592 706,591 706,582 708,580 709,581 709,577 708,578 707,577 707,568 706,568 705,567 705,564 706,563 706,560 710,556 711,557 710,556 711,555 710,554 711,553 711,550 710,550 709,549 710,548 711,548 687,548 686,547 684,549 683,549 682,550 683,551 683,554 684,554 686,556 686,557 685,558 684,558 682,556 679,556 678,555 678,554 679,553 680,553 680,552 679,553 678,552 676,552 674,550 672,550 671,549 672,548 674,548 673,547 672,547 671,546 672,545" /><polygon fill="black" points="408,544 410,544 411,545 410,546 408,546 412,546 413,547 412,548 408,548 408,558 406,560 405,560 402,563 401,562 401,561 402,560 401,560 400,561 401,562 400,563 400,564 400,563 401,562 402,563 402,564 403,564 404,565 404,567 403,568 401,566 400,567 400,569 400,568 401,567 402,567 403,568 402,569 402,570 401,571 401,573 400,574 400,575 399,576 398,576 399,576 400,577 399,578 397,578 396,579 396,581 395,582 395,583 394,584 393,583 393,579 392,578 392,577 392,578 393,579 392,580 393,581 393,583 392,584 393,585 393,588 392,589 392,590 392,589 393,588 394,589 394,590 395,591 394,592 390,592 389,593 391,593 392,594 392,597 391,598 391,599 389,601 388,601 387,600 386,600 385,601 384,600 384,604 386,606 386,607 385,608 384,607 384,611 385,611 387,613 388,613 388,612 389,611 390,611 391,612 391,613 392,612 395,612 396,611 397,612 399,612 401,614 400,615 401,614 402,614 403,613 404,613 405,614 406,614 406,613 407,612 407,611 406,610 406,609 405,608 404,608 403,609 402,608 400,608 399,607 399,604 398,603 398,602 399,601 399,599 400,598 401,598 402,599 403,599 404,598 402,596 404,594 404,593 405,592 406,592 407,593 407,594 406,595 406,597 406,596 407,595 407,592 408,591 415,591 416,592 416,595 416,593 417,592 419,592 420,591 424,595 423,596 422,596 420,594 419,595 419,596 418,597 418,598 418,597 419,596 420,596 421,595 424,598 424,600 425,601 424,602 424,603 425,602 426,603 426,604 425,605 425,608 424,609 423,608 424,609 424,611 425,611 426,612 425,613 424,613 424,615 424,614 425,613 426,613 427,612 429,614 428,615 427,615 429,615 430,614 433,614 433,612 434,611 435,612 436,611 437,612 441,612 442,611 443,611 444,612 444,611 445,610 446,610 447,611 447,614 448,615 447,614 448,613 449,613 450,614 450,615 450,614 453,611 454,612 454,614 453,615 452,615 453,615 454,614 455,615 458,615 456,615 455,614 456,613 463,613 464,614 463,615 460,615 463,615 464,614 465,615 467,615 465,615 464,614 465,613 469,613 470,614 472,614 473,615 473,614 472,613 474,611 475,612 475,614 476,615 477,615 478,614 479,615 479,614 478,613 479,612 489,612 490,613 489,614 488,614 487,615 484,615 487,615 488,614 489,615 489,614 490,613 490,612 491,611 492,612 492,613 493,612 494,613 494,614 493,615 494,615 495,614 497,614 498,613 499,613 500,614 499,613 499,612 500,611 503,614 503,613 504,612 506,612 507,613 511,613 512,614 512,613 514,611 517,614 517,615 518,615 519,614 520,614 519,614 518,615 517,614 517,613 519,611 521,611 522,612 522,613 523,614 523,613 522,612 523,611 524,611 525,612 525,613 526,613 527,614 529,614 530,613 531,613 532,614 532,615 533,615 532,614 533,613 534,613 534,612 535,611 536,612 536,613 539,613 540,612 541,612 542,613 540,615 541,615 542,614 543,615 544,614 545,615 546,615 547,614 548,614 549,613 550,613 552,615 552,614 553,613 561,613 562,614 562,613 563,612 567,612 568,611 569,612 569,613 568,614 565,614 564,615 565,614 567,614 568,615 569,615 570,614 571,614 572,615 574,615 575,614 574,613 575,612 584,612 585,611 586,611 587,612 584,615 585,615 587,613 588,613 590,611 591,612 592,611 593,611 594,612 593,613 593,614 592,615 591,614 590,614 589,615 588,615 590,615 591,614 592,615 594,613 595,614 595,615 596,615 596,614 597,613 599,615 600,614 603,614 603,613 604,612 606,614 607,614 607,612 608,611 609,612 609,615 610,614 611,614 610,614 609,613 609,612 610,611 611,612 613,612 614,611 615,612 615,613 614,614 613,614 614,614 615,615 614,614 615,613 615,612 616,611 617,612 617,615 618,614 619,614 620,615 621,615 621,613 622,612 624,614 626,614 627,615 630,615 631,614 631,613 629,613 628,612 628,611 629,610 630,611 631,610 630,610 629,609 629,607 630,606 631,607 631,608 631,606 630,606 629,605 625,605 624,604 624,603 625,602 626,603 627,603 626,602 626,600 625,600 623,598 623,574 622,573 623,572 623,571 622,570 622,569 623,568 621,568 621,569 620,570 618,568 617,569 615,567 615,566 608,566 607,567 600,567 599,568 598,568 597,569 596,568 593,568 592,569 593,570 592,571 592,576 591,577 591,578 592,579 592,582 593,583 592,584 593,585 593,587 592,588 592,591 591,592 590,592 591,593 589,595 588,594 588,592 587,592 586,593 585,592 583,592 581,590 581,589 582,588 583,589 583,583 582,584 581,583 581,582 582,581 582,580 583,579 583,577 582,577 581,576 583,574 582,575 581,574 581,573 582,572 582,571 583,570 583,569 582,568 581,569 579,569 578,568 577,569 576,569 574,567 572,567 571,566 565,566 564,567 563,567 562,568 561,567 560,568 559,568 558,569 557,568 554,571 552,569 553,568 554,568 552,568 551,567 548,567 547,566 544,566 543,565 542,566 540,566 537,569 536,568 534,568 533,569 532,569 531,568 532,567 531,567 530,566 528,566 528,567 527,568 526,568 525,569 524,568 523,568 522,569 521,568 519,568 519,569 520,570 519,571 518,571 517,570 517,569 516,568 515,568 516,569 516,570 517,570 518,571 518,575 519,576 519,600 520,601 520,604 521,603 523,605 522,606 519,606 519,607 517,609 516,608 516,605 514,603 515,602 517,602 518,603 515,600 514,601 513,601 512,600 511,600 510,599 510,576 511,575 510,574 511,573 512,573 512,572 513,571 513,569 511,567 511,566 509,564 510,563 511,563 511,562 510,562 509,561 511,559 511,550 510,550 509,549 510,548 511,548 510,547 511,546 511,545 511,546 510,547 507,547 506,548 504,548 503,547 504,546 505,546 506,545 508,545 508,544 507,545 505,545 504,544 498,544 497,545 496,544 496,545 497,545 498,544 504,544 505,545 504,546 500,546 500,547 501,548 500,549 500,550 498,552 498,553 496,555 496,558 497,559 497,562 498,563 498,564 499,565 499,567 498,568 499,567 500,567 499,566 499,564 497,562 497,559 498,558 499,559 499,560 501,562 507,562 508,561 509,561 510,562 510,563 509,564 503,564 503,568 502,569 500,569 499,570 497,570 496,569 496,568 495,568 495,570 496,571 495,572 494,572 493,571 493,570 492,571 492,572 490,574 489,574 488,575 487,574 487,573 490,570 490,569 489,568 487,568 486,569 485,568 483,568 482,569 479,566 472,566 471,567 469,567 468,568 468,569 467,570 466,569 465,570 464,569 464,568 463,567 455,567 454,568 453,568 452,569 450,569 449,568 448,569 449,570 448,571 449,572 448,573 448,576 449,575 450,576 450,577 449,578 449,581 448,582 448,583 449,584 449,591 450,592 450,594 450,592 451,591 452,592 452,593 453,594 453,600 452,601 450,599 450,597 450,599 449,600 449,601 450,600 451,600 452,601 452,602 451,603 450,603 450,605 449,606 448,605 448,603 447,604 446,603 445,603 444,602 444,601 443,601 443,602 442,603 441,603 440,602 440,601 439,600 440,599 440,597 440,598 439,599 438,598 438,597 437,596 437,595 438,594 438,593 439,592 438,593 437,592 437,591 438,590 439,590 439,588 438,587 438,585 437,584 436,584 436,585 435,586 434,585 434,584 433,584 434,585 434,587 433,588 432,587 432,586 431,585 431,581 430,580 431,579 431,578 430,577 431,576 431,575 430,574 431,573 431,572 430,571 431,570 431,569 430,568 431,569 430,570 429,570 427,568 426,568 425,567 425,566 424,565 424,562 423,561 423,560 421,558 422,557 423,557 421,555 422,554 423,554 423,553 422,552 422,551 421,550 423,548 420,548 419,547 421,545 423,545 421,545 420,546 416,546 415,545 415,544 414,545 413,545 412,544" /><polygon fill="black" points="392,535" /><polygon fill="black" points="411,527" /><polygon fill="black" points="460,519 461,519" /><polygon fill="black" points="736,510 736,511 737,511" /><polygon fill="black" points="494,510 495,511" /><polygon fill="black" points="311,503 311,504" /><polygon fill="black" points="495,502 494,503 495,504" /><polygon fill="black" points="783,501 783,502 782,503 781,502 781,503 782,503 783,502" /><polygon fill="black" points="781,496 781,498 782,499 782,497 783,496 782,497" /><polygon fill="black" points="778,496 778,497 779,498 779,501 779,498 778,497" /><polygon fill="black" points="453,496 456,496" /><polygon fill="black" points="319,496 319,503" /><polygon fill="black" points="503,494 503,495" /><polygon fill="black" points="500,494 500,495" /><polygon fill="black" points="745,488 744,489 744,491 745,492 744,493 745,492 746,493 746,494 744,496 743,496 743,498 742,499 741,498 741,497 740,496 739,496 740,497 740,498 739,499 737,497 736,497 737,498 737,499 736,500 736,502 737,503 740,503 737,503 736,502 736,500 737,499 738,499 739,500 740,500 740,499 741,498 742,499 742,504 744,506 744,507 745,506 747,508 747,509 746,510 745,509 744,510 744,511 745,511 746,510 747,510 748,511 749,510 750,511 751,510 752,511 755,511 756,510 757,510 758,511 759,511 760,510 761,510 762,511 764,511 765,510 766,511 767,511 768,510 769,511 770,510 771,510 772,511 773,511 774,510 775,511 774,510 775,509 775,506 778,503 777,502 777,499 776,498 776,496 775,497 773,495 775,493 775,492 774,491 775,490 775,489 774,488 773,488 772,489 771,488 770,488 769,489 768,488 766,488 765,489 764,488 763,488 762,489 761,488 760,488 759,489 758,488 757,488 760,491 760,492 759,493 758,493 757,492 757,491 754,488 753,488 753,489 757,493 756,494 755,494 750,489 750,488 748,488 746,490 745,489" /><polygon fill="black" points="384,488 384,489" /><polygon fill="black" points="657,487 658,487" /><polygon fill="black" points="552,487 553,487" /><polygon fill="black" points="660,486 661,487 662,487 662,486" /><polygon fill="black" points="656,483 656,485 657,484" /><polygon fill="black" points="639,483 638,484 637,484 636,485 635,485 634,486 632,486 631,485 624,485 623,486 620,486 619,485 616,485 619,485 620,486 619,487 617,487 620,487 621,486 623,486 624,485 631,485 632,486 637,486 638,487 639,487 638,487 637,486 637,485 638,484 639,484" /><polygon fill="black" points="840,481 840,484 842,486 847,486 847,483 845,483 843,481 842,481 844,483 846,483 847,484 847,485 846,486 844,486 843,485 841,485 840,484" /><polygon fill="black" points="464,481 464,482" /><polygon fill="black" points="826,479 829,479" /><polygon fill="black" points="600,479" /><polygon fill="black" points="384,479 385,480 385,485 385,480" /><polygon fill="black" points="831,477 831,478" /><polygon fill="black" points="601,476 601,477 602,478 603,478 604,479 604,478 602,476" /><polygon fill="black" points="600,471 600,473" /><polygon fill="black" points="600,468 600,469" /><polygon fill="black" points="288,468" /><polygon fill="black" points="863,464" /><polygon fill="black" points="214,464 215,464" /><polygon fill="black" points="810,460 813,460" /><polygon fill="black" points="800,457 801,457" /><polygon fill="black" points="789,456 796,456" /><polygon fill="black" points="784,456 786,456" /><polygon fill="black" points="736,456 738,456" /><polygon fill="black" points="720,456 721,456" /><polygon fill="black" points="704,456" /><polygon fill="black" points="736,453 737,453" /><polygon fill="black" points="736,448 737,448" /><polygon fill="black" points="592,448 592,463" /><polygon fill="black" points="499,448 501,450 501,451 502,451 502,449 501,449 500,448" /><polygon fill="black" points="279,448 279,449" /><polygon fill="black" points="276,448 276,450 277,451 277,453 277,448" /><polygon fill="black" points="400,446 400,447" /><polygon fill="black" points="840,444 840,447 839,448 839,463 840,463 839,462 839,461 840,460 840,455 839,454 839,448 840,447" /><polygon fill="black" points="512,442 512,443" /><polygon fill="black" points="514,440 514,441" /><polygon fill="black" points="404,440 403,441 402,441 401,442 401,444 404,441" /><polygon fill="black" points="400,440" /><polygon fill="black" points="752,439 753,440 752,441 753,441 753,439" /><polygon fill="black" points="464,439 465,440 464,441 465,440" /><polygon fill="black" points="648,436 649,436" /><polygon fill="black" points="666,433 668,433" /><polygon fill="black" points="752,432 753,432" /><polygon fill="black" points="687,432 687,448 686,449 685,449 684,448 682,448 683,448 685,450 685,451 687,453 687,454 687,453 686,452 686,450 687,449" /><polygon fill="black" points="679,432" /><polygon fill="black" points="664,432 663,433" /><polygon fill="black" points="648,432 648,433 649,433 650,434 651,434 652,433 649,433" /><polygon fill="black" points="434,432 436,432" /><polygon fill="black" points="410,432 409,433 408,433 408,434 409,434 410,435 410,436 408,438 409,437 410,437 411,438 409,440 406,440 407,440 408,441 406,443 405,443 405,444 404,445 403,445 403,447 401,449 400,449 400,453 400,452 402,450 403,451 403,453 400,456 400,463 399,464 398,464 397,465 396,464 395,465 394,464 393,464 392,465 392,466 394,468 393,469 392,469 392,472 391,473 391,474 390,475 390,477 389,478 389,479 388,480 388,487 387,488 387,491 387,488 388,487 388,480 389,479 390,479 391,480 391,482 390,483 390,494 389,495 390,495 391,496 391,511 392,512 392,514 393,515 393,516 392,517 392,520 394,522 392,524 393,525 393,527 392,528 394,530 394,531 393,532 392,531 392,532 395,535 396,534 397,535 398,534 399,535 400,535 398,533 400,531 401,531 402,532 401,533 402,533 403,534 405,534 406,535 407,535 406,535 405,534 407,532 406,532 405,531 406,530 406,528 407,527 407,524 408,523 408,520 409,519 408,518 408,513 407,512 407,509 406,508 406,506 407,505 407,504 406,503 406,502 407,501 407,499 406,498 406,497 407,496 406,495 406,493 405,492 405,488 406,487 407,488 407,491 407,488 406,487 406,480 407,479 412,479 413,480 413,503 414,503 414,480 416,478 418,478 419,479 422,479 423,478 424,479 437,479 438,478 440,478 441,479 441,476 442,475 443,476 443,479 443,477 444,476 444,475 443,475 442,474 442,473 443,472 444,472 443,471 444,470 445,470 447,472 447,473 448,474 448,475 447,476 447,477 445,479 446,479 446,478 447,477 448,478 448,479 448,472 447,472 445,470 445,468 446,467 447,468 447,469 447,467 446,466 446,464 445,463 445,461 446,460 447,461 447,462 447,461 446,460 446,458 447,457 447,456 448,455 448,448 446,446 446,442 447,441 446,441 445,440 442,440 443,441 441,443 439,441 440,440 438,438 438,436 439,435 439,432 438,432 438,434 439,435 438,436 437,436 437,437 436,438 435,438 434,437 435,436 435,434 433,436 431,436 430,435 431,434 432,434 432,432 430,432 431,432 432,433 430,435 427,432 426,432 425,433 424,433 423,432 423,433 422,434 420,434 419,433 420,432 417,432 416,433 416,435 415,436 414,436 412,438 411,438 410,437 411,436 411,435 410,435 409,434 409,433 410,432 411,432" /><polygon fill="black" points="231,432" /><polygon fill="black" points="224,432" /><polygon fill="black" points="800,430 800,431 801,431" /><polygon fill="black" points="520,424 520,425 521,424" /><polygon fill="black" points="528,419 528,420" /><polygon fill="black" points="528,417 530,417" /><polygon fill="black" points="833,416 833,431 834,431 834,416" /><polygon fill="black" points="800,416 800,423" /><polygon fill="black" points="551,416" /><polygon fill="black" points="535,416 536,417 535,418 532,418 532,419 528,423 528,424 527,425 526,424 525,424 524,425 523,425 521,427 521,428 520,429 520,430 521,431 521,432 520,433 521,434 521,435 520,436 520,437 519,438 519,440 518,441 517,440 516,441 516,442 515,443 517,445 517,447 516,448 515,447 515,446 514,445 514,447 513,448 512,447 512,445 512,447 513,448 513,449 512,450 512,451 513,451 514,452 514,455 512,457 513,458 513,459 512,460 512,462 511,463 504,463 503,462 502,463 501,462 501,461 500,461 500,462 499,463 498,462 498,460 499,459 499,456 500,455 501,455 502,456 502,457 502,456 500,454 499,455 499,458 498,459 497,458 497,457 496,456 497,455 497,454 495,452 495,451 496,450 498,452 499,452 498,451 497,451 496,450 496,449 497,448 496,448 495,447 495,444 494,443 494,442 495,441 495,440 495,441 494,442 492,440 490,440 489,439 489,438 488,438 487,437 487,436 486,436 485,435 485,433 486,432 487,433 487,434 487,432 484,432 483,433 482,433 482,434 481,435 480,434 480,432 480,433 479,434 477,434 476,433 477,432 478,432 477,432 476,433 474,433 473,432 472,433 472,434 473,435 472,436 473,437 472,438 470,438 470,439 469,440 468,440 464,444 464,445 465,446 463,448 462,448 461,449 460,448 459,448 458,449 457,448 457,450 458,450 460,448 461,449 461,450 460,451 460,452 461,453 461,456 460,457 459,456 459,454 458,453 457,453 456,452 457,453 457,454 456,455 456,456 457,457 457,459 458,460 458,462 457,463 457,464 456,465 456,473 457,474 457,475 456,476 457,477 457,479 458,478 459,478 460,479 460,478 459,477 459,476 460,475 462,477 462,478 463,479 467,479 468,480 469,480 470,481 471,481 472,480 473,480 474,481 480,481 481,482 480,483 481,484 480,485 472,485 471,484 472,483 476,483 471,483 470,484 469,484 471,484 472,485 479,485 481,487 479,489 478,489 477,488 474,488 473,489 472,488 472,487 470,487 471,487 473,489 472,490 472,495 471,496 466,496 465,497 464,496 463,497 462,497 461,496 460,497 458,497 457,498 452,498 451,497 451,496 450,497 449,497 448,496 449,497 448,498 449,499 448,500 448,508 449,509 449,510 448,511 449,510 450,511 451,510 452,511 455,511 457,513 456,514 457,515 456,516 456,517 457,518 456,519 457,518 458,518 459,517 464,517 465,518 464,519 463,519 465,519 466,518 467,518 468,517 470,517 471,518 470,519 469,519 471,519 472,518 473,518 472,517 473,516 474,516 475,517 475,518 479,518 478,518 477,517 476,517 475,516 476,515 478,515 479,516 478,515 478,514 479,513 479,512 480,511 482,511 483,510 483,509 485,507 487,509 486,510 485,510 485,511 488,511 487,511 486,510 487,509 487,508 486,507 489,504 489,503 490,502 491,503 492,503 492,502 494,500 495,500 494,499 495,498 495,496 496,495 497,495 496,495 495,494 495,492 496,491 497,492 499,492 499,489 500,488 501,488 502,489 502,492 502,491 503,490 502,489 502,488 503,487 503,486 502,485 502,483 503,482 503,481 504,480 519,480 520,479 528,479 528,478 529,477 530,477 531,478 531,479 531,478 532,477 533,478 533,479 534,479 535,478 537,478 538,479 551,479 552,480 554,480 555,481 559,481 560,480 562,480 563,479 567,479 568,478 569,479 570,479 571,478 572,479 575,479 575,478 574,477 575,476 575,473 574,472 575,471 575,453 574,452 575,451 575,450 574,451 573,450 573,449 574,448 574,446 575,445 573,443 573,441 574,440 575,441 575,442 575,441 574,440 575,439 573,441 573,444 574,445 574,446 573,447 571,445 571,444 570,443 570,441 571,440 570,441 569,441 568,440 568,439 566,437 566,436 567,435 566,434 566,433 567,432 566,433 565,433 564,432 563,432 564,432 565,433 563,435 562,434 561,434 560,433 561,432 559,432 558,431 559,430 558,429 558,428 559,427 558,427 557,426 557,425 558,424 559,425 558,424 557,425 556,425 555,426 553,424 554,423 554,422 553,421 552,421 551,420 551,419 551,420 552,421 552,422 551,423 548,423 546,421 546,420 544,418 545,417 546,417 547,418 548,418 548,417 545,417 544,416 544,417 543,418 542,417 540,417 539,416 538,416 539,417 537,419 536,419 535,418 536,417 536,416" /><polygon fill="black" points="270,416 271,416" /><polygon fill="black" points="260,416 260,419" /><polygon fill="black" points="823,408" /><polygon fill="black" points="308,399" /><polygon fill="black" points="269,399 271,399" /><polygon fill="black" points="234,399 263,399" /><polygon fill="black" points="200,399 201,399" /><polygon fill="black" points="193,399 198,399" /><polygon fill="black" points="188,399 191,399" /><polygon fill="black" points="848,398 848,399 846,401 845,400 844,401 842,401 841,400 840,401 841,402 840,403 841,404 839,406 839,409 840,408 841,409 841,410 840,411 840,415 841,416 841,423 842,424 842,431 841,432 841,435 840,436 841,437 841,442 842,443 842,447 843,448 843,449 842,450 841,449 841,450 843,452 843,455 842,456 842,462 843,463 842,464 842,466 843,465 844,466 844,467 843,468 843,470 841,472 840,471 840,467 840,471 841,472 841,473 840,474 840,475 840,474 841,473 842,474 842,475 843,475 844,476 843,477 843,478 842,479 841,478 841,477 841,478 840,479 841,478 842,479 843,479 844,478 845,479 845,480 846,481 847,481 847,480 848,479 852,479 852,478 853,477 854,478 854,479 855,479 854,478 855,477 855,475 854,474 855,473 855,471 856,470 856,448 857,447 857,432 856,431 856,410 855,409 855,408 854,407 855,406 854,405 855,404 855,398 855,399 854,400 853,399 853,398 850,398 849,399" /><polygon fill="black" points="834,397 834,398 838,398 837,398 836,397" /><polygon fill="black" points="837,394 839,396 839,395 838,395" /><polygon fill="black" points="871,391" /><polygon fill="black" points="868,389 868,390 869,390 869,389" /><polygon fill="black" points="868,385 867,386 868,386" /><polygon fill="black" points="816,384" /><polygon fill="black" points="600,384 600,385 601,386 601,387 602,387 603,388 603,389 601,391 600,390 600,389 600,390 601,391 601,392 600,393 599,392 598,393 597,392 596,393 595,392 592,392 592,394 593,395 593,397 592,398 592,399 593,400 592,401 592,402 593,401 593,400 594,399 595,400 597,400 598,401 598,402 597,403 596,403 595,402 594,403 594,404 593,405 593,406 592,407 593,407 593,406 594,405 594,404 595,403 596,404 597,403 599,405 598,406 596,406 595,407 596,407 597,406 598,407 598,415 599,416 599,430 600,431 600,437 601,438 601,439 600,440 600,447 601,448 601,449 600,450 600,453 601,454 601,455 600,456 602,458 601,459 601,460 600,461 600,462 601,462 603,464 602,465 601,465 600,464 600,465 601,465 603,467 603,469 602,470 602,473 603,474 604,474 605,475 605,476 607,476 608,477 608,478 607,479 606,479 607,479 608,478 609,479 615,479 616,480 620,480 621,481 623,481 624,482 623,483 620,483 619,482 616,482 618,482 619,483 623,483 624,482 625,483 631,483 628,483 627,482 628,481 633,481 634,482 633,483 635,483 635,482 634,481 636,479 637,480 637,481 638,481 640,479 641,479 642,478 644,478 645,479 646,479 647,478 648,478 649,479 651,479 652,478 653,479 654,478 655,479 656,479 657,480 657,481 658,482 658,480 659,479 660,480 660,481 664,481 665,482 664,483 663,483 663,484 665,482 668,482 669,483 668,484 667,484 667,485 666,486 664,486 666,486 667,487 671,487 668,487 667,486 668,485 668,484 669,483 671,483 670,482 671,481 671,480 672,479 680,479 681,478 682,479 753,479 754,478 755,479 757,479 758,478 759,478 760,479 760,478 761,477 763,479 764,479 765,478 766,478 767,479 775,479 776,480 777,480 778,479 819,479 820,478 821,479 822,479 823,478 824,478 824,476 825,475 826,475 827,476 828,476 830,474 831,474 831,473 830,473 830,474 829,475 828,475 827,474 827,473 829,471 830,471 831,470 830,469 831,468 831,445 830,444 830,443 831,442 830,443 829,442 829,441 830,440 830,437 831,436 830,435 831,434 831,430 831,431 830,432 829,432 828,433 827,432 827,429 825,429 824,428 827,425 828,426 828,427 829,428 829,430 829,425 830,424 831,425 831,428 831,422 830,421 830,420 831,419 831,418 830,417 830,416 831,415 831,408 831,415 830,416 827,416 826,417 825,417 824,416 823,416 822,415 822,414 821,413 821,412 822,411 823,411 823,410 822,410 820,408 819,408 820,409 821,409 822,410 822,411 821,412 820,412 818,410 817,410 816,409 816,408 814,408 813,409 811,409 810,408 809,408 808,409 808,410 809,411 809,412 808,413 808,414 809,415 808,416 808,419 809,420 808,421 808,425 809,426 809,427 808,428 809,429 808,430 809,431 810,431 811,430 812,431 815,431 816,432 816,437 817,438 817,439 816,440 816,447 817,448 817,449 816,450 818,448 819,449 819,450 818,451 818,454 819,455 819,456 818,457 818,458 816,460 816,461 815,462 814,462 813,463 810,463 809,462 808,462 807,461 805,461 804,460 805,459 807,459 808,458 815,458 816,457 816,456 816,457 815,458 808,458 807,459 802,459 801,460 797,460 796,461 791,461 790,460 789,460 788,459 787,459 786,460 785,460 784,461 783,460 774,460 773,459 774,458 774,457 775,456 774,457 773,457 772,456 770,456 771,457 770,458 769,458 767,456 767,448 768,447 768,442 767,441 767,440 757,440 756,441 755,440 755,441 756,442 755,443 753,443 752,444 755,447 755,450 754,451 753,450 753,448 752,447 752,448 753,449 753,450 752,451 752,455 750,457 749,457 748,456 746,456 745,457 744,456 745,457 744,458 736,458 745,458 746,459 745,460 734,460 733,459 728,459 727,458 726,458 727,459 725,461 722,461 721,460 720,460 719,461 712,461 711,460 711,458 709,458 711,460 710,461 705,461 704,460 704,459 705,458 706,458 704,458 703,459 702,459 701,458 698,458 697,459 696,459 697,459 698,460 697,461 692,461 691,462 690,461 689,461 688,460 689,459 691,459 692,458 694,458 695,457 694,457 693,458 691,458 690,457 688,457 687,458 686,457 686,456 684,454 683,454 682,455 681,454 681,453 682,452 682,451 680,451 679,450 679,449 680,448 678,446 678,445 679,444 679,443 678,443 677,442 677,441 679,439 679,437 679,439 678,440 677,440 676,439 676,437 675,436 674,436 673,435 672,436 671,436 670,435 672,433 675,433 677,435 678,435 678,434 677,434 676,433 672,433 671,432 670,432 671,433 669,435 661,435 660,434 660,433 659,433 660,434 659,435 657,435 656,434 657,433 656,433 656,436 655,437 654,436 654,435 653,435 653,436 652,437 651,437 651,439 650,440 648,438 648,439 649,439 650,440 648,442 648,443 649,444 649,445 648,446 648,447 647,448 645,448 644,449 643,449 642,448 641,448 640,449 640,450 641,451 641,453 642,454 642,455 641,456 640,455 637,458 635,458 634,457 635,456 636,456 635,456 634,457 633,456 633,457 632,458 632,459 633,460 632,461 632,462 632,461 633,460 634,461 634,463 633,464 624,464 623,463 623,460 622,459 623,458 623,456 622,457 621,456 620,456 621,456 622,457 622,459 621,460 620,460 619,459 619,458 617,456 617,454 616,453 616,452 615,451 615,440 614,439 614,432 615,431 615,426 614,425 614,424 615,423 615,419 614,418 614,398 615,397 615,390 614,389 614,387 613,386 614,385 615,385 614,384 613,384 613,385 612,386 611,385 611,384 611,386 610,387 608,387 607,386 608,385 608,384 605,384 604,385 603,385 602,384" /><polygon fill="black" points="870,382 870,383 871,384 871,388 871,383" /><polygon fill="black" points="871,379" /><polygon fill="black" points="868,379 868,380 867,381 867,383 867,382 868,381" /><polygon fill="black" points="342,379 341,380 336,380 335,381 328,381 327,380 304,380 303,381 288,381 287,380 280,380 279,381 272,381 271,380 264,380 263,381 224,381 223,380 208,380 207,381 168,381 167,380 163,380 167,380 168,381 167,382 162,382 160,380 160,381 161,382 160,383 160,608 161,609 167,609 168,610 167,611 160,611 207,611 208,612 207,613 200,613 207,613 208,612 215,612 216,613 231,613 216,613 215,612 216,611 247,611 248,610 255,610 256,611 256,612 257,612 258,611 256,611 255,610 256,609 258,609 259,608 259,602 260,601 261,602 261,607 261,582 260,581 260,580 261,579 261,576 262,575 263,576 263,583 263,575 262,575 261,574 261,575 260,576 259,575 259,568 260,567 260,552 261,551 262,552 262,567 262,552 261,551 261,550 263,548 265,550 264,551 264,552 264,551 265,550 266,550 267,551 268,551 268,550 269,549 270,550 271,550 270,549 271,548 271,547 270,547 269,546 272,543 276,543 277,542 278,543 278,542 279,541 281,543 283,543 284,542 285,542 287,540 287,539 286,538 286,537 288,535 289,535 290,534 291,535 291,534 292,533 293,534 294,533 295,534 295,535 295,534 294,533 295,532 295,531 293,529 293,528 294,527 294,526 295,525 296,525 298,527 301,524 302,525 302,526 301,527 303,525 303,523 302,522 302,521 301,520 301,518 302,517 303,518 303,517 302,516 303,515 303,512 305,510 306,511 307,510 308,511 309,511 310,510 311,511 310,510 310,508 309,507 310,506 311,506 308,506 307,505 308,504 309,504 308,503 309,502 309,499 310,498 311,499 311,500 311,499 310,498 310,497 311,496 311,495 310,494 310,493 311,492 311,491 310,490 310,489 312,487 312,480 313,479 313,478 312,477 312,476 313,475 313,471 311,469 311,466 310,465 311,464 310,464 310,465 309,466 308,466 307,465 307,464 307,465 306,466 305,465 305,464 303,466 300,466 299,465 300,464 301,464 294,464 293,465 292,465 291,464 289,464 288,465 289,465 290,464 291,465 293,465 294,466 294,467 293,468 291,468 290,469 290,470 289,471 288,471 287,472 285,472 284,473 283,472 281,472 280,473 279,472 279,470 278,470 278,473 277,474 275,472 275,467 276,466 277,467 277,466 278,465 278,464 277,463 277,459 278,458 278,456 279,455 278,456 277,456 277,457 276,458 275,457 275,453 275,458 274,459 273,458 273,453 272,452 272,450 273,449 274,450 274,448 273,449 271,447 271,445 270,444 271,443 271,441 269,439 269,437 270,436 271,437 271,438 271,437 270,436 270,435 271,434 271,433 270,432 271,431 271,423 270,423 271,424 271,431 269,433 268,432 269,433 269,434 268,435 266,433 266,432 264,432 263,431 263,429 262,428 263,427 263,426 263,427 262,428 261,427 261,425 262,424 262,423 263,422 263,418 262,417 263,416 262,416 262,417 263,418 262,419 262,420 263,421 263,422 261,424 260,423 260,421 258,423 257,422 257,421 258,420 258,419 257,419 255,417 256,416 257,416 258,417 258,416 256,416 255,417 254,416 253,416 252,417 251,416 250,416 249,417 248,416 247,417 246,416 243,416 241,418 240,417 240,416 240,417 241,418 241,419 243,417 244,418 244,420 243,421 241,421 241,422 243,422 244,423 243,424 242,424 241,425 240,424 240,426 241,427 240,428 240,431 239,432 237,432 236,433 235,432 234,432 234,434 235,435 235,436 234,437 232,435 232,434 232,438 233,439 233,440 232,441 232,442 233,443 232,444 232,447 231,448 230,448 230,449 231,450 231,451 230,452 227,449 227,448 224,448 225,449 225,450 224,451 224,454 225,455 224,456 225,457 225,459 225,456 226,455 227,455 227,454 228,453 229,454 229,462 228,463 227,462 227,458 227,461 226,462 226,463 225,464 224,463 224,461 224,464 226,466 226,471 227,472 227,473 228,474 228,478 227,479 226,479 225,478 225,474 225,477 224,478 223,477 223,476 222,475 223,474 222,473 224,471 224,470 221,473 220,472 218,472 216,474 214,472 215,471 215,467 215,471 214,472 212,470 212,468 207,468 206,467 204,467 203,466 205,464 206,465 210,465 211,466 213,466 212,465 211,465 210,464 209,464 208,465 207,465 206,464 205,464 204,465 203,464 202,465 201,465 200,464 199,464 200,465 199,466 198,466 197,465 197,464 193,464 192,465 193,465 194,466 193,467 192,467 192,470 190,472 190,479 191,480 191,487 192,488 192,495 193,496 192,497 193,498 193,499 192,500 192,502 193,503 192,504 192,510 193,511 194,511 195,510 196,511 197,511 198,512 198,513 199,514 199,515 200,516 200,518 201,518 202,519 201,520 200,520 201,521 201,523 200,524 200,527 201,526 202,527 203,526 204,526 205,527 207,527 208,528 208,531 209,532 209,533 208,534 209,535 210,535 211,534 212,535 214,535 215,534 216,535 216,536 217,536 220,539 219,540 218,540 216,538 217,539 216,540 217,541 216,542 217,543 218,543 219,542 220,543 221,542 222,542 223,543 226,543 227,542 228,543 229,543 230,544 232,544 233,545 232,546 233,547 232,548 233,549 232,550 232,551 232,550 233,549 234,549 235,550 234,551 236,549 238,549 239,548 240,549 241,549 242,550 241,551 237,551 241,551 242,552 242,559 243,560 243,590 241,592 240,592 239,593 232,593 231,592 229,592 230,593 229,594 216,594 215,593 215,592 200,592 199,593 177,593 175,591 175,400 176,399 183,399 176,399 175,398 176,397 206,397 207,398 206,399 205,399 223,399 223,398 224,397 287,397 288,398 287,399 283,399 295,399 295,398 296,397 300,397 301,398 303,398 304,397 319,397 320,398 319,399 314,399 319,399 320,398 321,398 322,399 326,399 327,400 327,447 326,448 326,455 327,456 327,567 326,568 326,583 327,584 327,590 325,592 319,592 318,593 312,593 311,592 304,592 311,592 312,593 311,594 292,594 291,593 290,594 283,594 282,593 283,592 285,592 277,592 276,593 275,593 274,592 272,592 272,593 273,593 274,594 273,595 272,595 273,596 273,597 272,598 272,599 273,598 274,599 274,601 273,602 272,602 272,607 274,609 273,610 272,610 272,611 279,611 280,612 279,613 278,613 276,615 278,615 279,614 279,613 280,612 319,612 320,613 319,614 296,614 319,614 320,613 335,613 320,613 319,612 320,611 337,611 338,612 339,611 338,610 339,609 340,609 341,610 341,611 342,610 343,611 343,610 342,610 341,609 342,608 343,608 343,606 342,605 343,604 343,603 342,602 343,601 342,600 343,599 343,592 342,591 342,584 343,583 343,580 343,581 342,582 341,581 341,576 342,575 343,575 342,574 342,568 343,567 343,565 341,563 341,560 342,559 342,554 341,553 341,544 342,543 342,536 343,535 343,528 342,527 342,520 343,519 343,512 342,511 342,501 343,500 343,488 342,487 342,474 341,473 341,472 342,471 343,471 343,464 342,463 342,462 341,461 341,456 342,455 343,456 343,459 343,456 342,455 342,453 343,452 343,432 342,431 342,429 343,428 343,424 342,423 342,416 343,415 343,408 342,407 342,403 343,402 343,400 341,398 341,392 342,391 342,388 343,387 343,384 342,383 342,382 337,382 336,383 335,382 335,381 336,380 343,380 343,379" /><polygon fill="black" points="160,378 163,378" /><polygon fill="black" points="340,377 339,378 336,378 340,378 341,377 343,377" /><polygon fill="black" points="167,377 166,378 167,378" /><polygon fill="black" points="879,376 879,383" /><polygon fill="black" points="869,376 870,376" /><polygon fill="black" points="336,376 337,376" /><polygon fill="black" points="161,376 165,376" /><polygon fill="black" points="860,369 863,369" /><polygon fill="black" points="857,368 856,369 857,370 856,371 856,372 858,374 857,375 854,375 853,376 851,376 850,377 849,377 847,375 847,374 840,374 839,373 838,373 836,375 833,375 832,374 832,376 831,377 830,376 829,376 827,378 825,376 824,377 824,378 825,379 824,380 824,383 823,384 824,385 824,390 825,391 824,392 824,397 825,398 823,400 816,400 823,400 825,398 826,398 827,399 830,399 831,398 832,399 830,397 831,396 831,395 833,393 834,393 836,391 837,391 838,392 839,392 838,391 839,390 840,390 841,391 842,391 843,392 845,392 846,393 847,393 848,394 848,395 849,396 854,396 855,395 855,394 853,396 852,395 852,394 854,392 855,392 856,391 859,391 860,390 861,391 862,390 863,391 866,391 864,391 863,390 863,389 864,388 863,387 863,386 864,385 865,385 865,379 866,378 866,376 866,377 865,378 864,377 864,376 863,375 863,374 862,373 863,372 863,371 860,371 858,373 857,373 856,372 856,371 857,370 858,370 857,369 858,368" /><polygon fill="black" points="832,368 832,369 833,369 833,368" /></svg>